#!OML:ASF X:\für Bonn\!DataBase\2005_08_11_Bastian_Final\c3d\Bastian.ASF
:FULLY-SPECIFIED
:DEGREES
980
root 1.08258 2.92259 -1.73975 119.039 11.0911 -189.08
lowerback 73.4392 -0.418224 -20.3506
upperback 19.8486 1.45531 -4.3581
thorax 3.23526 6.83939 2.7538
lowerneck -1.36854 0.777371 -0.299568
upperneck -14.1067 3.73461 12.0333
head -4.19483 1.83019 3.59823
rclavicle -2.80286e-014 -7.55382e-015
rhumerus -28.5602 15.5875 -76.3193
rradius 46.0294
rwrist -179.418
rhand 0.199186 2.91993
rfingers 7.12502
rthumb 25.7811 -25.3533
lclavicle -2.80286e-014 -7.55382e-015
lhumerus 54.4729 -9.99066 -13.8507
lradius 54.8122
lwrist 220.612
lhand -23.9972 18.105
lfingers 7.12502
lthumb 2.48006 48.0703
rfemur -78.7694 -17.5596 36.5719
rtibia 98.9481
rfoot -0.969338 -1.03844
rtoes 8.40729
lfemur -92.8584 51.0433 -27.6229
ltibia 152.989
lfoot -4.53487 -24.6858
ltoes -20.0688
981
root 1.08349 2.99016 -1.75666 119.331 11.1849 -188.944
lowerback 73.4917 -0.476287 -20.3529
upperback 19.9258 1.42417 -4.25941
thorax 3.32831 6.80024 2.88804
lowerneck -1.4519 0.838759 -0.391025
upperneck -14.2361 3.89245 12.2614
head -4.23467 1.91425 3.68041
rclavicle 2.18663e-015 2.75317e-014
rhumerus -27.7236 15.5876 -76.1681
rradius 45.2316
rwrist -178.949
rhand 0.195047 2.995
rfingers 7.12502
rthumb 25.7772 -25.2788
lclavicle 2.18663e-015 2.75317e-014
lhumerus 54.0514 -10.1216 -13.2469
lradius 54.5521
lwrist 220.191
lhand -23.9462 18.094
lfingers 7.12502
lthumb 2.52933 48.0587
rfemur -78.986 -17.6205 36.7122
rtibia 99.5192
rfoot -1.50714 -1.20331
rtoes 9.20359
lfemur -91.824 51.2253 -26.8685
ltibia 152.912
lfoot -5.02012 -24.6614
ltoes -18.9705
982
root 1.08454 3.06401 -1.77316 119.648 11.3363 -188.799
lowerback 73.507 -0.542033 -20.3031
upperback 20.0233 1.43081 -4.15001
thorax 3.43226 6.77788 3.00708
lowerneck -1.49589 0.905538 -0.442567
upperneck -14.3975 4.05489 12.4243
head -4.29047 1.99824 3.735
rclavicle 6.12257e-014 -6.30147e-014
rhumerus -26.8658 15.5633 -75.9973
rradius 44.4287
rwrist -178.472
rhand 0.194429 3.06548
rfingers 7.12502
rthumb 25.7766 -25.2084
lclavicle 6.12257e-014 -6.30147e-014
lhumerus 53.6553 -10.2228 -12.5595
lradius 54.278
lwrist 219.747
lhand -23.8516 18.0614
lfingers 7.12502
lthumb 2.6207 48.0251
rfemur -79.1837 -17.6279 36.8922
rtibia 100.134
rfoot -2.02223 -1.3314
rtoes 9.6173
lfemur -90.7553 51.6657 -26.05
ltibia 152.823
lfoot -5.59561 -24.7544
ltoes -17.6132
983
root 1.08505 3.14292 -1.78761 119.97 11.4872 -188.623
lowerback 73.5509 -0.625418 -20.2294
upperback 20.1167 1.43391 -4.03044
thorax 3.52964 6.75649 3.12806
lowerneck -1.48357 0.986047 -0.475443
upperneck -14.5864 4.23751 12.5551
head -4.36542 2.08895 3.77507
rclavicle 3.30976e-014 1.59028e-014
rhumerus -26.0125 15.5674 -75.8372
rradius 43.6125
rwrist -177.953
rhand 0.332341 3.15109
rfingers 7.12502
rthumb 25.9087 -25.1035
lclavicle 3.30976e-014 1.59028e-014
lhumerus 53.2451 -10.3222 -11.8893
lradius 54.0013
lwrist 219.386
lhand -23.755 18.0254
lfingers 7.12502
lthumb 2.71398 47.9879
rfemur -79.3742 -17.6527 37.0585
rtibia 100.816
rfoot -2.46846 -1.41968
rtoes 9.84079
lfemur -89.5681 51.9819 -25.151
ltibia 152.692
lfoot -6.20151 -24.7983
ltoes -16.3282
984
root 1.08466 3.22628 -1.80068 120.312 11.6683 -188.434
lowerback 73.5455 -0.705709 -20.1724
upperback 20.2549 1.45127 -3.88439
thorax 3.6768 6.73108 3.29029
lowerneck -1.47401 1.09574 -0.56077
upperneck -14.7906 4.45642 12.6567
head -4.44768 2.20047 3.81344
rclavicle 4.07509e-014 -1.27222e-014
rhumerus -25.075 15.7247 -75.6147
rradius 42.7933
rwrist -177.505
rhand 0.484589 3.34287
rfingers 7.12502
rthumb 26.0544 -24.8904
lclavicle 4.07509e-014 -1.27222e-014
lhumerus 52.7478 -10.394 -11.142
lradius 53.6936
lwrist 219.013
lhand -23.721 18.0414
lfingers 7.12502
lthumb 2.74684 48.0035
rfemur -79.5636 -17.647 37.2397
rtibia 101.556
rfoot -2.81171 -1.46442
rtoes 9.98624
lfemur -88.308 52.3746 -24.1711
ltibia 152.53
lfoot -6.80325 -24.9246
ltoes -14.7881
985
root 1.08418 3.31317 -1.81234 120.697 11.8199 -188.252
lowerback 73.4881 -0.806117 -20.0978
upperback 20.4184 1.47868 -3.73814
thorax 3.8455 6.71076 3.44969
lowerneck -1.46939 1.19186 -0.579302
upperneck -14.9951 4.64156 12.665
head -4.52477 2.29461 3.81235
rclavicle -9.34288e-014 6.75868e-014
rhumerus -24.1193 15.7533 -75.3702
rradius 41.947
rwrist -177.012
rhand 0.621338 3.41745
rfingers 7.12502
rthumb 26.1854 -24.7964
lclavicle -9.34288e-014 6.75868e-014
lhumerus 52.3144 -10.4158 -10.395
lradius 53.3437
lwrist 218.667
lhand -23.6862 18.1395
lfingers 7.12502
lthumb 2.78042 48.1011
rfemur -79.8374 -17.6241 37.4042
rtibia 102.389
rfoot -3.13827 -1.48757
rtoes 9.92759
lfemur -87.0479 52.6143 -23.2046
ltibia 152.335
lfoot -7.40198 -25.0511
ltoes -13.2415
